<svg xmlns="http://www.w3.org/2000/svg" height="511pt" version="1.1" viewBox="-58 1 511 511.99995" width="511pt">
<g id="surface1">
<path d="M 198.257812 149.128906 C 135.542969 149.128906 84.613281 200.058594 84.613281 262.773438 C 84.613281 325.484375 135.542969 376.414062 198.257812 376.414062 C 260.96875 376.414062 311.898438 325.484375 311.898438 262.773438 C 311.898438 200.058594 260.96875 149.128906 198.257812 149.128906 Z M 253.65625 273.609375 L 209.09375 273.609375 L 209.09375 318.171875 C 209.09375 324.132812 204.214844 329.007812 198.257812 329.007812 C 192.296875 329.007812 187.421875 324.132812 187.421875 318.171875 L 187.421875 273.609375 L 142.855469 273.609375 C 136.898438 273.609375 132.019531 268.734375 132.019531 262.773438 C 132.019531 256.8125 136.898438 251.9375 142.855469 251.9375 L 187.421875 251.9375 L 187.421875 207.375 C 187.421875 201.414062 192.296875 196.539062 198.257812 196.539062 C 204.214844 196.539062 209.09375 201.414062 209.09375 207.375 L 209.09375 251.9375 L 253.65625 251.9375 C 259.617188 251.9375 264.492188 256.8125 264.492188 262.773438 C 264.492188 268.730469 259.617188 273.609375 253.65625 273.609375 Z M 253.65625 273.609375 " style=" stroke:none;fill-rule:nonzero;fill:rgb(0%,0%,0%);fill-opacity:1;" />
<path d="M 314.609375 123.257812 L 381.113281 123.257812 L 279.527344 16.660156 L 279.527344 88.3125 C 279.527344 107.683594 295.101562 123.257812 314.609375 123.257812 Z M 314.609375 123.257812 " style=" stroke:none;fill-rule:nonzero;fill:rgb(0%,0%,0%);fill-opacity:1;" />
<path d="M 257.855469 88.3125 L 257.855469 0 L 49.804688 0 C 22.847656 0 0.5 22.214844 0.5 49.167969 L 0.5 462.832031 C 0.5 489.789062 22.847656 512 49.804688 512 L 346.710938 512 C 373.664062 512 396.011719 489.785156 396.011719 462.832031 L 396.011719 144.929688 L 314.605469 144.929688 C 283.183594 144.929688 257.855469 119.601562 257.855469 88.3125 Z M 309.730469 440.210938 L 86.78125 440.210938 C 80.820312 440.210938 75.945312 435.335938 75.945312 429.375 C 75.945312 423.414062 80.820312 418.539062 86.78125 418.539062 L 309.867188 418.539062 C 315.828125 418.539062 320.703125 423.414062 320.703125 429.375 C 320.703125 435.335938 315.828125 440.210938 309.730469 440.210938 Z M 198.257812 398.085938 C 123.625 398.085938 62.941406 337.40625 62.941406 262.773438 C 62.941406 188.140625 123.625 127.457031 198.257812 127.457031 C 272.890625 127.457031 333.570312 188.140625 333.570312 262.773438 C 333.570312 337.40625 272.890625 398.085938 198.257812 398.085938 Z M 198.257812 398.085938 " style=" stroke:none;fill-rule:nonzero;fill:rgb(0%,0%,0%);fill-opacity:1;" />
</g>
</svg>